# xmcd CD database file
#
# Track frame offsets:
#	150
#	58362
#	97984
#	151578
#	189767
#
# Disc length: 3368 seconds
#
# Revision: 0
# Processed by: cddbd v1.5.2PL0 Copyright (c) Steve Scherf et al.
# Submitted via: CDex 1.70beta3
#
DISCID=310d2605
DTITLE=Takayanagi Masayuki - Not Blues
DYEAR=1969
DGENRE=Jazz
TTITLE0=Not Blues
TTITLE1=ESP
TTITLE2=Autumn Leaves
TTITLE3=You Don't Know What Love Is
TTITLE4=Careful
EXTD=YEAR: 1969
EXTT0=
EXTT1=
EXTT2=
EXTT3=
EXTT4=
PLAYORDER=
